<svg  viewBox="0 0 531.9 677.6"  xmlns="http://www.w3.org/2000/svg">
<style>
circle{
  transition: all 0.3s;
  paint-order:stroke;
}
circle.active{
  stroke-width: 10;
  r: 30px;
}

text {
  font-family: sans-serif;
  paint-order:stroke;
  transition: all 0.3s;
  font-size:0px;
  stroke-width: 7;
  stroke:rgba(255,255,255,0);
  fill:rgba(0,0,0,0);
}

text.large{
  font-size:20px;
  stroke-width: 5;
  fill: rgba(0,0,0,0.7);
  stroke: rgba(255,255,255,1);
}

text.active{
  font-size:26px;
  fill: rgba(0,0,0,0.9);
  stroke: rgba(255,255,255,1);
}

</style>
<g fill="#fff" stroke="#39c" stroke-linecap="round" stroke-linejoin="round" stroke-width="1.5">
<path id="高雄市" d="m331.3 370.7 1.5 4.1-2.3 3.5-4.4 1.7-1 2.2.7 2.8 4.4 2.5 4.8 3.7 2.2 5.3.2 1.7-12 2.7-5 2.8-3.1 2.8-6 3.5-.7 4 1.8 4.2-2.1 3.5-5.7 2.8-.7 4.8 1.7 6.9-2.4 9.3v7.8l-3.4 4.2-6.5 5-1.8 6.9 1 5.7 2.3 3.2 4.8 4.5.9 3.4-3 .4-4-.7-3.3.2-6.6 4.7-4.6-3.9-5.9-6.2-5.5 1.2-5.1 4.2-10.2-4.7-7.3 3.2-4.9 5-6.2 1.9-13.8-.7-1.3 3.4-1 5.1-2 5.5.4 4.9-.1 6.7-4.4 14.9-.1 5 2.1 5.3.3 5.7-6.2 14.4-2.1-.7h-1.2l-1.4.5h-1.7l-10-7.1-9.4-12.1 9.8 10.9-1.1-5.2-3-5.1-4.1-4.2-7-5.9-2.7-3-1.2-3.4 1.7-3.2.9-2.9-1.2-4-2.1-4-3.8-5.4-3.5-7.1-.8-3.2.1-2.1 1.1-2.5.3-1.7-.4-.9-2.1-1.6-.4-1.6-2.3-3.4-.5-1.4-1.6-9.6 4.7-2.6.2.4 3 6 3.7 1.8 12.1 1.5 6.4-.6 6.5.7 3.2-1.1 2.7-1.8 5.1-1.8 4.8-3.1 1.9-3.9 2.3-3.6 4.1-5 4.7-4.5 5.1-3.8 5.7-5 5-5.9 7.8-11.9 8-10.6 1.8-4.6-.8-4.7-1.1-3.1.1-3.5 2.8-2.5 5.3.5 4.5-.4 9.5-5.1 3.5-3.8 6.1-4.2 6-3 3.2-3.5 2.8-4.8 6.6-4.7 14.3-6.6 3.3.7 4.5 1.5 3.3 4.1z"/>
<path id="屏東縣" d="m199.5 587.3 1.5 2-.2.8-2.1 1.2-3.9 3-.7-2.3 1.1-1.9 2.2-2.5h1.5zm98-100.7 2.7 4.6.6 3.4 4.1.9 4.3 2.6-2.2 9.7v3.6l-1.6 3.5-7.6 2.9-3.7 1.9-5.9 1.1-4.2 3.2-1.8 4.6-2.9 4.7-2.3 5.2-.6 10.4.9 4.5 1.6 4.3.8 5v3.8l2 3.6 3.6 3.9-1.9 2.7-4.1 2.2-1.7 2.8-.4 3.1 2.1 2.8 2.7 1.2 2.4 3.1-.1 4 .4 4.3 2.5 4.2 3.6 3.4 7.9 3.3 3.5-.2.6 36.4-1.2 5.2-1.9 4.2-2.7 1.8-3 2.6v5.8l1.2 6.5-.3 4.2-3.5-4.8-5.3-3.7-6-2.4-6.2-1.4-.2 4.7-1.8 1.6-2.6-.6-2.9-2.2-.1-1.7 1-4.9-4.3-6.5-.4-1.7.1-1.5.3-2.2v-7.7l.4-2.1 1.9-2.6.4-2.1-15.4-36.4-1.2-2-4.3-4.8-3.4-7-1.5-2-6.4-4.5-4.2-2.1-.7-2.7-.5-.9-3.4-2-7.7-3.4-3.5-2.2-3.7-2.9-2-1.2 6.2-14.4-.3-5.7-2.1-5.3.1-5 4.4-14.9.1-6.7-.4-4.9 2-5.5 1-5.1 1.3-3.4 13.8.7 6.2-1.9 4.9-5 7.3-3.2 10.2 4.7 5.1-4.2 5.5-1.2 5.9 6.2 4.6 3.9 6.6-4.7 3.3-.2z"/>
<path id="台南市" d="m133.2 448.4-.4.9-1.8-1.5-1.3-2.9.2-.9h.6l.7.8.5 1.4 1.6 1.5zm.4-19.3-2.2 4.7 3-9.3.5.1zm2.7-9 2.7-6.9.4-.1.2 1.3zm4.9-15.7-.3 1.6.5-7.4.4.2zm115.7 8-1.8 4.6-8 10.6-7.8 11.9-5 5.9-5.7 5-5.1 3.8-4.7 4.5-4.1 5-2.3 3.6-1.9 3.9-4.8 3.1-5.1 1.8-2.7 1.8-3.2 1.1-6.5-.7-6.4.6-12.1-1.5-3.7-1.8-3-6-.2-.4-4.7 2.6-.8-4.4-1.4-2.5-3-2.8-1.2-2.482217-2.151951-2.141236-2.348049-.776547-1-1.6-4.1-1.556663-4.7-2.343337-2.2-1.7-.6-2.5-1.045868-2.347375.580393-2.832811 1.865475-5.819814v-1.3l2.2-1.549191v-2.950809l-2.2-2.2.6-2.8 1.9-1.1 2.1-.6 1.1-1.8-.6-2.7-1.1-2.2.7-2.1 1.1-2.6 1.7-1.9-.4-1.6.4-1.6 2.6-6.3 1.2-1.2 2-.4-2.8-1.7 1.2-2.9 4 1.4 6.9.9 5.6 1.3 4.8-2 1.9-3.4 4.5-2.5 5.1-3.6 3.7-3.4 4.7-3.2 6-2.4 11.8-2 6.5-.3 5.6 1.7 3.1 1.6 1.6 3 1.4 3.5 7.6 7.1.8 5.2-1.4 10 1.2 3.2 3.5 2.4h3l4.1-1.6 3.8-.5 2.9.8z"/>
<path id="新竹市" d="m319.3 114.7-.1.1-3.6.8-3.4-1.2-2.1-2.6-3.3-1.8-5.3-1.9.9-2.8 4.2-7.9 1.7-2.1.6-1v-1.2l-.6-1.3-.8-1.5 1.2-2.1 1.3-1.2 6.5 2.4 11.7 3.4 4.1 1.9 3 2.7 1.4 2.5-.7 2.5-1.9 1-3.9.6-4.6 1.7-2.6 3-1.8 3.8z"/>
<path id="新竹縣" d="m411.3 138.6-1.8 4.5-1.1 3.3.5 3-3 4-10.8 9.9-3.3 7.3-2.2-.6-8.2.7-.6.4-.5-3.4-3.6-5.4-2.5-2.3-1-3-3.9-2.8-9.7 2.2-3.7-.3-5.2.3-6 1.5-3.2-.7.7-3.5 1-3.2-.7-2.8-.8-2 .8-2.2.6-2.4.2-2.7-.5-3.6-3-2.3-9.4-4-4.6-3.1-3.1-3-3.4-7.7 1.9-2.2 1.8-3.8 2.6-3 4.6-1.7 3.9-.6 1.9-1 .7-2.5-1.4-2.5-3-2.7-4.1-1.9-11.7-3.4-6.5-2.4 1.2-1.6.5-2.7.7-2 1.5-2 2.1-1.5 1.9-.6-.1-.8.5-2 1.7-4.3 1.7-2.2 2.4.7 10.6-.7 3.5 2.2 3.1 6 3.9 1.4 3.3.8 3.2 1.4 5.2 1.5 2.8 2.9-.8 4 2.7 2.6 5 1.4 3.3 2.2 2.4 2.1 2.9.5 3-.2 2.6 2.4 2.1 3.1 3.3 1.5 2.6 1.8.3 3.5 1.3 5-1.5 5.4-3.6 4.5.4 3 4 2.7 4.8 2.6 4.3.7 3.1 2 5.6 2.8z"/>
<path id="宜蘭縣" d="m518 91 1.7.3 1.2 1.5-.5 1.6-3-.1-1.1-.5-1.3-1.9.7.2zm-35.3 101.6h-.9l-8.6-1.2-14.3-7.7-2.9.7-1.9 4.1-3.8 3.1h-5l-6.4-2.2-11.6-2.6-5.1-2.2-1.9-1.4-4.6-3.3h-3.8l-3.6 1.6-3.1.4-2.8-1.7-3.4-1.8-3.8-.7-1.1-2.6.4-3.8-2.7-.7 3.3-7.3 10.8-9.9 3-4-.5-3 1.1-3.3 1.8-4.5.3-1 3.1-1.1 2.5.4 2.6-.9 1.7-2.6-2.4-8.6 4.2-2.7 2.4-.6 4.4-1.1 3.8-1.3 3-2.3 3.8-2.4 5.1-2.2 3.1-1.9-.4-1.4-.7-2.2-.2-2.9 1.6-3.4 3.6-2.8 2.9-1.6 10.1-3.7 10.4-5.6 4.8-1.3 3.9-2.5 2.4-3.4 2.6-2.8 2.8-1.4 2.7-.8 3.6-2.1 1.2-2.6-1.9-2.5 1.1-2 8.7-1.6 2.8-1.7 6.5-3 4.6-.9 2.5 1.3.7.8-9.3 4.1-4.3 3.2-14.5 15.8-2.2 3.3-1.8 4.7-1.2 5.3-.4 5.3.2 5.1 2.6 10.7-.2 2.8-1.1 2.7.1 5.6 2.7 4.4 5.1 2.7 5.8 1v1.2l-2.4-.2-2.4.2-2.1.6-1.4 1 2.1 3.4 1 4.5-.6 3.9-4.7 2.4-.3 1.7.5 2.1 1.4 1.8.4 2-1.9 1.6-4.8 2.5-5.4 5.6-.3 2.2.4 4.9-.9 1.8-1 1.6-.6 2.2-.4 4.4-.5 1.1-.7.9-.4 1z"/>
<path id="基隆市" d="m482.2 29-.2 8.3.1 2 2.9 2.7-.3 1.7-2 1.3-3 1-4-.4-8.2-3-2.3-1.6-2.9-2.3-2.1-2.4-1.4-2.4-2.2-2.6-.5-2 2.5-1.5 5.6-2.1 3.4-2 1.1.6 1.8 1.9 3 .9z"/>
<path id="苗栗縣" d="m319.3 114.7 3.4 7.7 3.1 3 4.6 3.1 9.4 4 3 2.3.5 3.6-.2 2.7-.6 2.4-.8 2.2.8 2 .7 2.8-1 3.2-.7 3.5 3.2.7 6-1.5 5.2-.3 3.7.3 9.7-2.2 3.9 2.8 1 3 2.5 2.3 3.6 5.4.5 3.4-2.9 1.8-1.4 3.9-3.8 1.4-4.1-.1-3.2 2.1-3.6 3.1-4.6 2.2-8.9 6.4-5.3 2-6.9 3.2-4.2-1.4-3.8-3.9-4.7-1.7-7.6-.5-4.3 2.3-.7 5.1-4 1.9-9.4.5-8.9-4.6-5.1-.9-5.7-2.5-11.7-7.7-4.9-3.8-3.6-3.4-7.1-10 5.6-5.6 1.4-2.7.7-4.6 1.7-3.9 4.6-7.2 1.2-4.4 1.2-1.8 5.3-1.4 1.4-1.5.9-1.8 1.1-1.7 3.2-3 3.6-2.3 4.3-1.1 5.5.9-.7-3.7 2.1-2.6 2.9-2.6 1.4-3.9.6-1.3 2.8-1.3.3-.9 5.3 1.9 3.3 1.8 2.1 2.6 3.4 1.2 3.6-.8z"/>
<path id="台北市" d="m453.3 62.3-3.3 1.2-4.5-.1-3.7-.7-2.8-2.3-3-2.9-4.5-3.2-3-4.6 1.2-5.1-1-4.4-4.4-3.8-2.9-2.9 1.2-2 1.4-1.7 1.6-3.2 2.8-2.7 8.5-4.4 2.2-1.8 3.1-1.3 2.9.8 1.7 1.5-.4 2.5.3 2.4 2.5 4.7 1.9 6.9 3 2.4 1.3 3-1.3 4.6.1 3.5 3.6 1.8 2.9 2.2-1.6 3z"/>
<path id="新北市" d="m467.6 23.7-3.4 2-5.6 2.1-2.5 1.5.5 2 2.2 2.6 1.4 2.4 2.1 2.4 2.9 2.3 2.3 1.6 8.2 3 4 .4 3-1 2-1.3.3-1.7-2.9-2.7-.1-2 .2-8.3 26.8 5.8 2.5 1.4-1.3 2.6-.3 2 .5 3.6 1.9 6 2 2.8 1.7.6 5.4-.7 2.8.3 3.3.8 2.8 1.3 1.6 1.7-6.7 3-.7-.8-2.5-1.3-4.6.9-6.5 3-2.8 1.7-8.7 1.6-1.1 2 1.9 2.5-1.2 2.6-3.6 2.1-2.7.8-2.8 1.4-2.6 2.8-2.4 3.4-3.9 2.5-4.8 1.3-10.4 5.6-10.1 3.7-2.9 1.6-3.6 2.8-1.6 3.4.2 2.9.7 2.2.4 1.4-3.1 1.9-5.1 2.2-3.8 2.4-3 2.3-3.8 1.3-4.4 1.1-1.9-3.8-6.9-5.9-1.1-3.8-.6-3.6 2.4-2.6 1.2-3.6-6.6-8.6-3.9-1.3-5.7.2-4-2 1-4.6-.7-3.5-4.2-3.5-.8-3.6.8-4-.2-4.2 2.9-2.8 10.1-2.7 2.6-2.3.8-2.9-.4-2.9-4-5.1-3.2-1.6-3.2-.6-2.5-2-3.6-2.1-4.9-2.1-3.2-3.2 8.6-1.4 3.8-1.2 4.7-3.6 1.4-.7 1.7-.2h2.4l2.8.7 1.4 1.9 1 1.9 1.1 1.1 2.7-1-2.8-3.9-4.5-4.1-2.4-1.3.7-1.9 1.4-1 1.5-.6.6-.7 1.7-3.5 2.4-4.1 5.1-4.1 7.5-3.3 8.5-1.8 8.3.9 3.5 2.3 7.8 9.8 2.7 5.1 1-.4 2.1-.4 2.3-.3 1.7.4-.1.6-.9.9-.7 1.3.1 1.5.8.8zm-14.3 38.6 5.8-6.6 1.6-3-2.9-2.2-3.6-1.8-.1-3.5 1.3-4.6-1.3-3-3-2.4-1.9-6.9-2.5-4.7-.3-2.4.4-2.5-1.7-1.5-2.9-.8-3.1 1.3-2.2 1.8-8.5 4.4-2.8 2.7-1.6 3.2-1.4 1.7-1.2 2 2.9 2.9 4.4 3.8 1 4.4-1.2 5.1 3 4.6 4.5 3.2 3 2.9 2.8 2.3 3.7.7 4.5.1z"/>
<path id="桃園市" d="m425.7 121.5-2.4.6-4.2 2.7 2.4 8.6-1.7 2.6-2.6.9-2.5-.4-3.1 1.1-.3 1-3.8-1.5-5.6-2.8-3.1-2-4.3-.7-4.8-2.6-4-2.7-.4-3 3.6-4.5 1.5-5.4-1.3-5-.3-3.5-2.6-1.8-3.3-1.5-2.1-3.1-2.6-2.4-3 .2-2.9-.5-2.4-2.1-3.3-2.2-5-1.4-2.7-2.6.8-4-2.8-2.9-5.2-1.5-3.2-1.4-3.3-.8-3.9-1.4-3.1-6-3.5-2.2-10.6.7-2.4-.7 6.8-9.8 5.4-5.8 5.5-4.2 14.3-4.2 3.3-1.8 2.9-2.2 3.5-1.8 6.9-2.2 15.6-2.5 3.2 3.2 4.9 2.1 3.6 2.1 2.5 2 3.2.6 3.2 1.6 4 5.1.4 2.9-.8 2.9-2.6 2.3-10.1 2.7-2.9 2.8.2 4.2-.8 4 .8 3.6 4.2 3.5.7 3.5-1 4.6 4 2 5.7-.2 3.9 1.3 6.6 8.6-1.2 3.6-2.4 2.6.6 3.6 1.1 3.8 6.9 5.9z"/>
<path id="彰化縣" d="m259.7 253.8.1 2.5-3.4 1.1-.9 2.1.4 2.7-1.6 3.2-1.2 3.8-.1 4-.9 4.6-.7 9.3 1.6 4.4 2.8 2.3 3 1 4.4 2-.8 2.4-3 1.1-1.9 1.6-1.8 1.1-.8.5-9.3-1.7-4.5.1-9.4-4.2-15.3-1.6-9-3.1-5.1-1.2-5.8-.3-17.1 1.8-5.8-3.1.6-.9 1.2-5 .9-2.1 5.5-4.7 1.6-2 2.1-5.4 3.2-5.3 4.4-11.3 2.1-3.2 2.3-2.1 2-1.2 1.7-.8 1.2-.9.5-2.1.9-2 4-2.7.9-2.1.4-7 .7-2 2.1-1.8 8.8-9.2 4.5 1.4 3.1 2.4 2 4.4.8 5.2 3.5 3.8 9.2 2.4 3.3 2.5 2.5 3.5 1.6 2.8v2.8l1 2.3 3.3.5 4.2 2.5z"/>
<path id="嘉義縣" d="m145.5 395.8-1.4 1-.3-.8 1.8-2.1.7-1.7.9-1 .4.3.1.8-1.1 1.4zm1.7-8.8-.6-.5 1.6-2.6.7-.3-.4 1.3zm3.8-6.3-.1-3 .4.2v2.1zm1-6.7-.6 1.1-.4-1.4zm-1-4.3-.3.9-1.1-1.5zm-23 .7-2.5 1.1 2.9-3.8 10.8-9.8 8.2-9.4 1.9-.6-6.9 10.3-3.5 3.1-2.3 2.5-2.9 2.6-2.3 1.5zm146.6-35.7 4.7.5 5.3 1.8 3.2.9 3.9 1.9-.2 3.7-2.3 3.6.9 3.3 2.1 4.6.3 4.1.8 2.6 5.9 1 19.8.1.7.2-14.3 6.6-6.6 4.7-2.8 4.8-3.2 3.5-6 3-6.1 4.2-3.5 3.8-9.5 5.1-4.5.4-5.3-.5-2.8 2.5-.1 3.5 1.1 3.1.8 4.7-6.5-.7-2.9-.8-3.8.5-4.1 1.6h-3l-3.5-2.4-1.2-3.2 1.4-10-.8-5.2-7.6-7.1-1.4-3.5-1.6-3-3.1-1.6-5.6-1.7-6.5.3-11.8 2-6 2.4-4.7 3.2-3.7 3.4-5.1 3.6-4.5 2.5-1.9 3.4-4.8 2-5.6-1.3-6.9-.9-4-1.4 3-.2 2.5-1 1.1.4-.7-2.3-1.7 1.1-1.4-.3-1.9-.1v-2.3l1.8-3.9 2.9-.2 4.2.1-2.9-7.4-3.2-5.6 1.5-2.5v-1.4l-2.4-1 .3-1.3 1.4-1.4.7-1.8 3.1-3.6-6.6.3-.1-6.1 8.9-.9 6.5 3.3h4.7l3-2.2 1.3-3.4 1.6-2.1 4.1-.6 5.5-4 3.4-1.6 2.9-2.7 12.6-6.6 5.6-1.3 9.7-1.7 5.4-.2 4.1 3.2 3.8 4.1 9.8 3.2 2.8-.3 6.5-1.7 3.6 2.4 1.9 2.7 4.8-.4 9.1-1.7 3.1-.9v-2.4l.2-3.5zm-71.7 21.5-3 2.9.7 3.9 4.8 1.7 5.4 3.1 5.6 1.2 5.3-1.9 3.5-.4 2.3-1.5-1.9-4.8-2-2.8-3.2-1.5-4.3-1.5-6 .5z"/>
<path id="嘉義市" d="m202.9 356.2 7.2-1.1 6-.5 4.3 1.5 3.2 1.5 2 2.8 1.9 4.8-2.3 1.5-3.5.4-5.3 1.9-5.6-1.2-5.4-3.1-4.8-1.7-.7-3.9z"/>
<path id="花蓮縣" d="m482.7 192.6.4.6 1.3 2 .1.8-1.1 1.6-4.4 4-4.8 5.9-3.7 2.6-1.1 1.4.6 1.5-.7 1-5.1 3.5-2 1.7-2.1 4.2-2.3 8.5-5.7 7.5-1.2 3.1.2 3.3 1.4 3.6 1.2 1.6 1 .7.6.9.1 2.3-.9 2.5-2.9 4-.5 2.4-.3 4.5-2.5 11.3-4.9 11.9-6.2 27.9-3.7 6.9-8.6 44.7-2.7-.7-8.3 3.7-3 3.7 1.3 4.9.4 4.8-2.7 4.8-2.7 3.6-2.1 4.7-1.8 5.8-2.9 5.4-3.7 9.3-2.4 4.2.1 4.7-.7 4.4-5 2.6-6.4-.8-9-6.8-7.2-11.2-4.4-1.1-4.8-.6-3.9-3.4-4.7-2-6.1-1.9-3.8-5.7-1-5.2-.2-1.7-2.2-5.3-4.8-3.7-4.4-2.5-.7-2.8 1-2.2 4.4-1.7 2.3-3.5-1.5-4.1 4.7-2.4 2.4-2-1.4-4.3 1.2-1.9 1.2-2.8 4-2.7 5.7-1.1 5.7-.2 4.1-3.3 1.1-5.9 3-3.7 5.9-1.9 3.5-2.2 1.2-3.5 2.5-8.8 1-5.9-.7-5-1-3.8-2.4-2.8-1.7-2.8 4.4-6.6.2-2.5 1.9-4.9 3-5.9 2.4-6.2 1.2-6.9.5-5.3-1.4-3.1-1.6-2.3 1.8-5.3 4-7.4 6.1-7.2.3-2.8-1.2-3.1-4-2.3-2.3-2.2-.1-6.9 2.9-2 5.1-1.5 4-1.7-.2-2.6-1.1-4.3 2.2-1.4.9-1.4 2.7-1.2 2.4-2.6 1-3.6 2.3-3.4 5.8-3.3 1.9-4.3.3-2.9 3.6-3.4 1.9 1.4 5.1 2.2 11.6 2.6 6.4 2.2h5l3.8-3.1 1.9-4.1 2.9-.7 14.3 7.7 8.6 1.2z"/>
<path id="南投縣" d="m397.2 210.7 1.1 4.3.2 2.6-4 1.7-5.1 1.5-2.9 2 .1 6.9 2.3 2.2 4 2.3 1.2 3.1-.3 2.8-6.1 7.2-4 7.4-1.8 5.3 1.6 2.3 1.4 3.1-.5 5.3-1.2 6.9-2.4 6.2-3 5.9-1.9 4.9-.2 2.5-4.4 6.6 1.7 2.8 2.4 2.8 1 3.8.7 5-1 5.9-2.5 8.8-1.2 3.5-3.5 2.2-5.9 1.9-3 3.7-1.1 5.9-4.1 3.3-5.7.2-5.7 1.1-4 2.7-1.2 2.8-1.2 1.9 1.4 4.3-2.4 2-4.7 2.4-.5-1.4-3.3-4.1-4.5-1.5-3.3-.7-.7-.2-19.8-.1-5.9-1-.8-2.6-.3-4.1-2.1-4.6-.9-3.3 2.3-3.6.2-3.7-3.9-1.9-3.2-.9-5.3-1.8-4.7-.5-2-2.4-6.3.6-5.3 1.4-4.5-1.8-3.1-3.2.7-4 1.5-3.6-.8-5.4.8-5 1.5-3.3-1.4-5 1.8-1.1 1.9-1.6 3-1.1.8-2.4-4.4-2-3-1-2.8-2.3-1.6-4.4.7-9.3.9-4.6.1-4 1.2-3.8 1.6-3.2-.4-2.7.9-2.1 3.4-1.1-.1-2.5 3.3.2 13.9 1.7 3.2-.4 3.9-3.3 5.9-10.1 2.8-5.9 5-2.1 7.8 1 4.6-.1 4.5-5.4 2.3-1.3 6.9 4.7 2.7-.7 2-3.8 3.7-2.7 5.1.1 3.9-1.3 6.1-5.3 3.9-2 3.4-.6 6.8-3.3 4.8-.1 4.9-.7 8.6-3.1 3.5-.2 3.7.7z"/>
<path id="台中市" d="m380.8 171.1.6-.4 8.2-.7 2.2.6 2.7.7-.4 3.8 1.1 2.6 3.8.7 3.4 1.8 2.8 1.7 3.1-.4 3.6-1.6h3.8l4.6 3.3-3.6 3.4-.3 2.9-1.9 4.3-5.8 3.3-2.3 3.4-1 3.6-2.4 2.6-2.7 1.2-.9 1.4-2.2 1.4-10.3-.9-3.7-.7-3.5.2-8.6 3.1-4.9.7-4.8.1-6.8 3.3-3.4.6-3.9 2-6.1 5.3-3.9 1.3-5.1-.1-3.7 2.7-2 3.8-2.7.7-6.9-4.7-2.3 1.3-4.5 5.4-4.6.1-7.8-1-5 2.1-2.8 5.9-5.9 10.1-3.9 3.3-3.2.4-13.9-1.7-3.3-.2v-.9l-4.2-2.5-3.3-.5-1-2.3v-2.8l-1.6-2.8-2.5-3.5-3.3-2.5-9.2-2.4-3.5-3.8-.8-5.2-2-4.4-3.1-2.4-4.5-1.4.4-.5.7-2.3 2.5-1.9 1.7-4.5 2.1-8.5 7.2-11.2 2.2-6.9 2.6-3.8 10.3-10.3 7.1 10 3.6 3.4 4.9 3.8 11.7 7.7 5.7 2.5 5.1.9 8.9 4.6 9.4-.5 4-1.9.7-5.1 4.3-2.3 7.6.5 4.7 1.7 3.8 3.9 4.2 1.4 6.9-3.2 5.3-2 8.9-6.4 4.6-2.2 3.6-3.1 3.2-2.1 4.1.1 3.8-1.4 1.4-3.9z"/>
<path id="雲林縣" d="m255.7 303 1.4 5-1.5 3.3-.8 5 .8 5.4-1.5 3.6-.7 4 3.1 3.2 4.5 1.8 5.3-1.4 6.3-.6 2 2.4h-.4l-.2 3.5v2.4l-3.1.9-9.1 1.7-4.8.4-1.9-2.7-3.6-2.4-6.5 1.7-2.8.3-9.8-3.2-3.8-4.1-4.1-3.2-5.4.2-9.7 1.7-5.6 1.3-12.6 6.6-2.9 2.7-3.4 1.6-5.5 4-4.1.6-1.6 2.1-1.3 3.4-3 2.2h-4.7l-6.5-3.3-8.9.9 3.5-3.6-.1-11.4.5-8.6 2.2-6.9 3.3-5.3 1-7 1.8-6.1 1-2.1 4.7-5.7.9-1.9.5-1.1 4.3-3 .7-1.1 5.8 3.1 17.1-1.8 5.8.3 5.1 1.2 9 3.1 15.3 1.6 9.4 4.2 4.5-.1 9.3 1.7z"/>
<path id="台東縣" d="m446.9 655.7-4.2 1.2-5.7-2-5.2-3.4-3.1-2.6 1-1.9-.1-1.8-.8-1.7-1.3-1.5h15.1v1.3l-1 2.5-.3 2 .7 1.8 3.6 2.4 1.6 1.8zm-18.5-125.1-.1.8-2.7-.3-.3-.4-2.1-.7-2.1-3.5-1.1-3 .5-.4 7.7-.5.8.4.7 1.4-.7 2.7-.6 1.2-.4 1.2zm-126.2 80.3-3.5.2-7.9-3.3-3.6-3.4-2.5-4.2-.4-4.3.1-4-2.4-3.1-2.7-1.2-2.1-2.8.4-3.1 1.7-2.8 4.1-2.2 1.9-2.7-3.6-3.9-2-3.6v-3.8l-.8-5-1.6-4.3-.9-4.5.6-10.4 2.3-5.2 2.9-4.7 1.8-4.6 4.2-3.2 5.9-1.1 3.7-1.9 7.6-2.9 1.6-3.5v-3.6l2.2-9.7-4.3-2.6-4.1-.9-.6-3.4-2.7-4.6 3-.4-.9-3.4-4.8-4.5-2.3-3.2-1-5.7 1.8-6.9 6.5-5 3.4-4.2v-7.8l2.4-9.3-1.7-6.9.7-4.8 5.7-2.8 2.1-3.5-1.8-4.2.7-4 6-3.5 3.1-2.8 5-2.8 12-2.7 1 5.2 3.8 5.7 6.1 1.9 4.7 2 3.9 3.4 4.8.6 4.4 1.1 7.2 11.2 9 6.8 6.4.8 5-2.6.7-4.4-.1-4.7 2.4-4.2 3.7-9.3 2.9-5.4 1.8-5.8 2.1-4.7 2.7-3.6 2.7-4.8-.4-4.8-1.3-4.9 3-3.7 8.3-3.7 2.7.7-3.5 18.5-1.7 3.4-5.5 6.6-2 3.4-1.6 4.3-1.2 7.9.2 7.2-.8 6.8-3.8 6.9-1.6 1.5-3.7 2.4-1.7 1.6-.8 1.6-1.3 4-3.7 5.9-2.2 9.2-1.7 4.2-7.9 10.3-1 1.9-10.8 8.3-2.5 2.7-.3 1.9.4 4.3-.1 2-1 2.2-1.7 2.5-3.6 4.3-3.6 3.1-12.5 7.6-8.4 8.3-2 1-1.7 1.9-4 9.5-2 3.5-6.2 7-2.5 4.3-1.5 8.6-3.7 11.8-7.4 11.8-1.1 4-1.3 11.3z"/>
<path id="高雄市" d="m19.9 424.5-1.2.6-.8-1.1-.9-3.3.6-.8 2.4-1 1.7.5.1 1.5-.1 1.2-.8.8zm-.8-8.5-1.1 2.2-1.4-.5-1.2-1.7-.2-1.8.7-.8 2.1.4zm31.1-2.3-.2.1-.8-1.1.2-.4 1.6-.2.5 1.5zm9-3.2.1.1h1.5v.9l-.7 1.1-.4 1.2-.7-1.9zm-21.4-21-1.1.1-1.9 1.2-.3-.2.3-1 .7-1 .4-.4 1.1-.3.9.7zm-5.4-4.7.1 1.6.3 1.1.9.9-.4 1.1-.7.9.4 1.3-1 .4-2-.2-1-.5.9-2.2-.1-3-.6.5-1.3.4-.4-1.6 1.4-3.6 1-.3 1.7 2.6zm-31.5-4.1 1.5.5v1.1l-.4.6-1.3.4-.7-.7zm37.3-17.5-2.1 1.5-1.3.4-1.4.8-.8-.4-.2-1.3.4-.4 1.2.4 2.5-1.4zm12.4-19.8-.4.9 2.6-.9 2 .2 1.4-.1 1-1.9 3 6.1.8 2.9-.3 2.1-1.3-1.4-1.6-1.2-1.8-.4-2.5 1.6-1.8.2-.9.6-.4 1-.7 2.9-.5.9-3 1.9-3 .5-3.1-1.4-3.1-3.4.8-1.8 1.7 2.3 2.6.6 2.7-.8 2.2-2.1-1.5-.6-1.3-.9-.9-1.1-.9-1.6-.5 1-.7.4-.2-2.8.2-2.8h1.2l1.3.3 4.7-3.2 3-1.2zm-25.4 6.5h-2.4l.4-1.4.8-1 1.2-.3 1.6-.2 1.4-.6.4-1.4v-3.4l2.1-7.4 1.9-2.1 2.7 2.6-1.6 1-1.1 2.6-1.7 6-.1 1.5.4 1.5-.2.9-1.9.3-1.4.1-.9.2-.9.4zm21.5-12.6-1.4.5-.7-1.1-.6-2.5-1.2-2-2.8-3.1 3.5-2.9 2.1 1.2 2.1 2 .9 2.1-1.6 1.7.6 2.4zm1.7-21.5-.2.6-.8-2.1-.2-1 1.2-1.1 1-2.1.3.8 1.6 1-.2 1.2-1.4 1z"/>
<path id="高雄市" d="m55.4 179.2-4.1.9-2.3-.7 3.9-6.1 1-.8 1.7-.3 1.6-.1 1.6.9 1.2 1.1v1.8l-1.1 1.3-1.2.1-.9.7-.5.8zm41.085-16.048276 3.515 8.017242-1.4999185 7.413793-5.554591 2.241379-2.8076924-4.137931-2.6561314-.862069-6.0433334.517241-5.3033333 2.844828-2.96 3.87931-2.5283333 1.034483-2.8983334-1.206897-2.035-.086206-1.7883333-.689656-.925-1.293103.37-.431035 1.6033333-1.810344.4933334-.689656.185-1.37931-.1233334-1.551724-.4933333-2.672414-1.3566667-2.672414v-2.884231l1.3566667-1.339907h5.3033333l7.4616667 4.137931 3.7-2.798024c1.0688889-2.387524 1.6033333-3.581286 1.6033333-3.581286s1.1482412-1.73341 3.4447234-5.20023l4.6952766 1.148506z"/>
<path id="高雄市" d="m195 89.1-.7 9.3-6.8 8.6-14.5 8.1 8.9-22.7 8.8 2 .4-3.7zm-40.869685 9.2435733-6.757783-8.4435733 8.037894-.9166729h7.018308l-.343292 3.8795715zm-90.730315-6.8062093 2.9627743-2.837364c2.9656184-.7176319 5.058186-1.2865679 6.2777029-1.706808s2.9554656-.1846374 5.2078459.706808l2.0000885 2.7-2.7484116 5-13.7 6.1-4.2.6-7-1.997887-2.0845445-3.3523698 2.0845445-9.0497432.8-2.7 8.0202896.7501633-1.8202896 4.6498367zm43.492835-31.557401-1.853107 4.1696887 1.216721 4.5361327-3.356449-3.5857844-1.831404-2.6329238-2.3327098 2.6329238-3.3799569 1.0058705-4.144836-.5058705-7.1586133 1.7225915v6.946044l4.04569 4.9395912-7.6495848-2.9302301-1.1960987-4.885127 1.8475135-4.632106-1.8475135-4.8637114 7.2426892-3.0523782 4.3048243-.6289829 2.656122-3.0117002h3.9867144c3.2217986 2.0078001 4.8326976 3.0117002 4.8326976 3.0117002s3.52405.6289829 3.52405.6289829.364417.3784297 1.093251 1.135289zm-4.156498-12.8844586-2.072441 1.7289294-5.096793 3.9060709-1.0291621-2.377327 1.0291621-1.9273505 3.3639422-1.3303228 2.0000918-.9379904zm-10.5563835-7.9346511-3.2201492 2.1487756-1.9954762-.630853-.4263872-2.3255982 1.7916564-1.9876705.3453543-1.8983722 1.9653331-1.1865634 1.5396688 2.5481723zm92.1200465 17.1391467-4.070462-1.7-5.061252 4.3520925-1.2267 1.7562512c-2.264051 0-3.396076 0-3.396076 0s-1.296963 0-3.890888 0v-5.5083437l-1.960936-1.8016235-7.512774-2.4566861 2.936005-8.0362224h3.000791l2.560437 5.594532 4.867365 3.3069059 2.544946-5.0236954h2.07783l6.731714 1.7167895 2.4 3.8 4.7 2.9z"/>
</g>
<path d="m26.5 20.1h180v98.5h-180zm108 0v98.5m2-46h70m-177.5 61.5h85v80h-85z" stroke="rgba(0,0,0,0.4)" fill="none"/>

<g fill="#F33" stroke="#fff" stroke-width="2" id="reservoirs"></g>
</svg>