<?xml version="1.0"?>
<!-- 修改自 https://simplemaps.com/resources/svg-tw -->
<svg viewBox="0 0 545 975" xmlns="http://www.w3.org/2000/svg">
<style>
circle{
  transition: all 0.3s;
  paint-order:stroke;
}
circle.active{
  stroke-width: 10;
  r: 30px;
}

text {
  paint-order:stroke;
  transition: all 0.3s;
  font-size:0px;
  stroke-width: 7;
  stroke:rgba(255,255,255,0);
  fill:rgba(0,0,0,0);
}
text.active{
  font-size:24px;
  fill: rgba(0,0,0,0.9);
  stroke: rgba(255,255,255,1);
}

</style>
<g fill="#fff" stroke="#39c" stroke-linecap="round" stroke-linejoin="round" stroke-width="1.5">
<path id="高雄市" d="m269.8 536.3 1.9 5.8-3 5-5.6 2.4-1.4 3.2 1 4 5.6 3.6 6.3 5.2 2.8 7.6.3 2.5-15.6 3.8-6.4 4.1-4 3.9-7.8 5.1-.9 5.7 2.3 6-2.7 4.9-7.4 4-.8 6.9 2.1 9.9-3 13.2-.1 11.2-4.3 5.9-8.5 7.2-2.3 9.8 1.3 8.1 3 4.6 6.2 6.4 1.2 4.9-3.9.5-5.2-.9-4.3.2-8.5 6.7-5.9-5.5-7.6-8.9-7.2 1.8-6.6 5.9-13.1-6.6-9.4 4.5-6.4 7.1-8 2.8-17.8-1.1-1.7 4.9-1.3 7.2-2.6 7.9.5 7-.1 9.5-5.7 21.2-.1 7.1 2.7 7.5.4 8.2-8.1 20.5-2.6-1.1-1.6.1-1.8.7h-2.2l-13-10.2-12.1-17.1 12.7 15.4-1.5-7.4-3.8-7.2-5.3-6-9-8.4-3.5-4.2-1.6-4.8 2.2-4.6 1.1-4.1-1.5-5.8-2.7-5.6-4.9-7.7-4.6-10.2-1-4.5.1-3 1.5-3.6.3-2.4-.5-1.2-2.7-2.3-.5-2.3-2.9-4.9-.7-2-2.1-13.6 6.1-3.7.2.5 3.9 8.6 4.8 2.5 15.7 2.2 8.2-.9 8.4 1 4.2-1.5 3.5-2.6 6.5-2.6 6.3-4.4 2.4-5.5 3-5.2 5.3-7.1 6.1-6.4 6.5-5.4 7.4-7.2 6.5-8.4 10-17 10.4-15.1 2.3-6.6-1-6.7-1.4-4.5.1-5 3.6-3.5 6.9.7 5.8-.6 12.3-7.3 4.5-5.4 7.9-6.1 7.7-4.3 4.2-5 3.6-6.8 8.5-6.8 18.5-9.4 4.3 1 5.8 2.2 4.2 5.9.7 2z"/>
<path id="屏東縣" d="m99.4 845 2 2.9-.3 1-2.7 1.8-5 4.3-.9-3.3 1.4-2.7 2.8-3.6h2zm126.7-143.3 3.5 6.6.7 4.9 5.4 1.3 5.5 3.6-2.8 13.8-.1 5.2-2 5-9.8 4.1-4.8 2.7-7.6 1.6-5.4 4.5-2.4 6.6-3.7 6.6-3 7.5-.8 14.7 1.2 6.5 2 6.1 1.1 7.1v5.4l2.6 5 4.6 5.6-2.5 3.8-5.3 3.2-2.1 3.9-.5 4.5 2.7 3.9 3.4 1.7 3.1 4.4-.1 5.7.6 6.1 3.2 5.9 4.6 4.9 10.2 4.7 4.5-.3.9 51.6-1.6 7.3-2.5 6-3.4 2.5-4 3.7.1 8.3 1.5 9.2-.4 5.9-4.5-6.8-6.8-5.2-7.8-3.5-8-1.9-.3 6.6-2.3 2.3-3.4-.8-3.7-3.1-.2-2.4 1.3-7-5.5-9.2-.5-2.4.1-2.1.4-3.2v-10.8l.5-3.1 2.5-3.6.5-3-19.9-51.6-1.6-2.9-5.5-6.8-4.4-9.9-2-2.8-8.2-6.5-5.4-3-.9-3.7-.7-1.3-4.4-2.9-10-4.8-4.5-3.1-4.8-4.2-2.6-1.6 8.1-20.5-.4-8.2-2.7-7.5.1-7.1 5.7-21.2.1-9.5-.5-7 2.6-7.9 1.3-7.2 1.7-4.9 17.8 1.1 8-2.8 6.4-7.1 9.4-4.5 13.1 6.6 6.6-5.9 7.2-1.8 7.6 8.9 5.9 5.5 8.5-6.7 4.3-.2 5.2.9z"/>
<path id="台南市" d="m13.8 647.3-.6 1.2-2.3-2-1.7-4.2.3-1.3h.7l.9 1.2.7 1.9 2.1 2.2zm.5-27.6-2.9 6.8 3.9-13.3.6.1zm3.5-12.8 3.5-9.9.5-.1.2 1.9zm6.3-22.5-.4 2.4.6-10.6.5.2zm149.5 11.5-2.3 6.6-10.4 15.1-10 17-6.5 8.4-7.4 7.2-6.5 5.4-6.1 6.4-5.3 7.1-3 5.2-2.4 5.5-6.3 4.4-6.5 2.6-3.5 2.6-4.2 1.5-8.4-1-8.2.9-15.7-2.2-4.8-2.5-3.9-8.6-.2-.5-6.1 3.7-1-6.3-1.8-3.6-3.9-3.9 4.7-3.4 2.7-6.1-1.1-5.2-6.3-.9-1.2 1.8-1.1 3.4-1.8 2.7-3.3-.1-1.3-2.3.5-7-.8-2.4-4.1-1.8-2.3 2.1-1.8 2.9-2.8.7-2.9-2.5-.7-3.5.7-3.4 1.1-2.3 3-1.6 3.7-.5 3.1-1 1-3-1.4-1.5-9.4-2.4v-1.9l7.9-.1-.8-2.6-4.3-3.7-2.8-3.2.7-4 2.5-1.5 2.7-.9 1.4-2.5-.8-3.9-1.4-3.2.9-3 1.4-3.7 2.3-2.6-.5-2.3.5-2.3 3.3-9 1.6-1.7 2.6-.6-3.7-2.5 1.6-4.1 5.2 2 8.9 1.3 7.2 1.8 6.2-2.8 2.5-4.9 5.8-3.6 6.6-5.1 4.7-4.8 6.1-4.6 7.8-3.5 15.2-2.8 8.5-.5 7.2 2.4 4 2.4 2.1 4.2 1.7 5.1 9.9 10.1 1 7.5-1.8 14.2 1.6 4.6 4.5 3.5h3.8l5.3-2.4 5-.6 3.7 1.1z"/>
<path id="新竹市" d="m254.3 168-.2.2-4.6 1.1-4.4-1.7-2.7-3.8-4.3-2.6-6.9-2.7 1.2-4.1 5.5-11.4 2.2-3 .7-1.5v-1.7l-.7-1.9-1.1-2.2 1.5-3 1.8-1.8 8.3 3.6 15.1 4.8 5.4 2.8 3.8 3.9 1.9 3.7-1 3.6-2.4 1.4-5.1.9-5.9 2.4-3.4 4.3-2.3 5.6z"/>
<path id="新竹縣" d="m373.1 202.6-2.3 6.5-1.4 4.7.6 4.4-3.8 5.8-14 14.2-4.3 10.5-2.8-.8-10.6 1-.8.6-.6-4.9-4.6-7.8-3.3-3.3-1.3-4.4-5-4-12.5 3.2-4.8-.5-6.8.5-7.7 2.1-4.1-1 .9-5.1 1.3-4.6-1-4-1-2.9 1-3.1.8-3.5.3-3.9-.7-5.2-3.9-3.4-12.1-5.7-6-4.5-3.9-4.4-4.4-11.1 2.4-3.1 2.3-5.6 3.4-4.3 5.9-2.4 5.1-.9 2.4-1.4 1-3.6-1.9-3.7-3.8-3.9-5.4-2.8-15.1-4.8-8.3-3.6 1.5-2.3.6-3.9.9-2.9 2-2.9 2.7-2.1 2.5-.9-.2-1.2.7-2.9 2.2-6.1 2.1-3.3 3.1 1.1 13.7-1 4.6 3.1 4 8.7 5 2 4.3 1.2 4.1 2 6.8 2.2 3.6 4.2-1.1 5.8 3.5 3.7 6.5 2.1 4.2 3.1 3.1 3.1 3.8.7 3.9-.3 3.4 3.5 2.6 4.5 4.3 2.2 3.4 2.6.4 5 1.6 7.3-1.9 7.8-4.6 6.5.5 4.3 5.2 3.9 6.2 3.8 5.5.9 4 2.9 7.3 4.1z"/>
<path id="宜蘭縣" d="m512.4 127.9 2.1.5 1.6 2.2-.7 2.3-3.8-.1-1.4-.8-1.7-2.7.9.3zm-47 152.6h-1.1l-11.1-1.7-18.5-11.1-3.8.9-2.4 6-4.9 4.5h-6.5l-8.3-3.2-15-3.8-6.5-3.1-2.5-2.1-5.9-4.7h-4.9l-4.7 2.3-4 .6-3.7-2.5-4.4-2.6-4.9-1-1.4-3.8.6-5.5-3.6-1 4.3-10.5 14-14.2 3.8-5.8-.6-4.4 1.4-4.7 2.3-6.5.5-1.5 3.9-1.6 3.3.6 3.4-1.3 2.2-3.8-3.1-12.4 5.4-3.9 3.1-.9 5.7-1.6 4.9-1.8 3.8-3.3 5-3.5 6.6-3.2 3.9-2.8-.4-2-1-3.2-.2-4.2 2-4.9 4.7-4 3.8-2.3 13-5.3 13.5-8.1 6.2-1.9 5-3.6 3.1-5 3.3-4.1 3.7-2 3.5-1.2 4.6-2.9 1.6-3.8-2.5-3.6 1.4-2.9 11.2-2.3 3.7-2.5 8.4-4.4 5.9-1.3 3.3 1.9.8 1.1-12 6-5.5 4.7-18.7 22.8-2.9 4.8-2.3 6.8-1.6 7.7-.5 7.6.3 7.4 3.3 15.5-.2 4-1.5 3.9.2 8.1 3.5 6.3 6.5 4 7.6 1.4v1.8l-3.2-.3-3.1.3-2.6.8-1.9 1.4 2.7 5 1.3 6.5-.8 5.6-6 3.4-.4 2.5.7 3 1.7 2.7.6 2.8-2.5 2.4-6.2 3.6-7 8-.3 3.2.5 7-1.2 2.6-1.3 2.3-.8 3.2-.5 6.4-.6 1.6-1 1.3-.5 1.4z"/>
<path id="基隆市" d="m464.8 44-.3 11.9.2 3 3.7 3.9-.4 2.5-2.5 1.8-4 1.5-5.1-.6-10.6-4.4-3-2.2-3.7-3.4-2.8-3.5-1.7-3.5-2.9-3.7-.6-2.9 3.2-2.2 7.2-3.1 4.4-2.9 1.4.9 2.4 2.7 3.9 1.4z"/>
<path id="苗栗縣" d="m254.3 168 4.4 11.1 3.9 4.4 6 4.5 12.1 5.7 3.9 3.4.7 5.2-.3 3.9-.8 3.5-1 3.1 1 2.9 1 4-1.3 4.6-.9 5.1 4.1 1 7.7-2.1 6.8-.5 4.8.5 12.5-3.2 5 4 1.3 4.4 3.3 3.3 4.6 7.8.6 4.9-3.7 2.6-1.8 5.6-4.9 2-5.3-.1-4.2 3-4.6 4.4-5.9 3.2-11.6 9.2-6.8 2.9-8.9 4.7-5.4-2.1-5-5.6-6-2.4-9.9-.8-5.5 3.3-.9 7.4-5.2 2.8-12.1.7-11.6-6.7-6.6-1.2-7.3-3.6-15.1-11.1-6.3-5.5-4.7-5-9.2-14.3 7.2-8.1 1.9-4 .9-6.6 2.2-5.6 5.9-10.4 1.6-6.3 1.5-2.7 6.8-2 1.9-2.1 1.1-2.6 1.4-2.5 4.2-4.3 4.6-3.4 5.6-1.5 7.1 1.3-.9-5.4 2.7-3.7 3.7-3.8 1.9-5.7.8-1.9 3.6-1.8.3-1.3 6.9 2.7 4.3 2.6 2.7 3.8 4.4 1.7 4.6-1.1z"/>
<path id="台北市" d="m427.4 92.2-4.2 1.7-5.8-.1-4.8-1-3.7-3.3-3.8-4.3-5.8-4.6-3.9-6.7 1.5-7.4-1.2-6.3-5.7-5.5-3.8-4.2 1.6-3 1.8-2.4 2.1-4.6 3.6-4 10.9-6.4 2.9-2.5 4-2 3.8 1.2 2.1 2.2-.5 3.6.4 3.5 3.2 6.8 2.5 10 3.9 3.5 1.6 4.4-1.6 6.6.1 5.1 4.6 2.6 3.8 3.2-2 4.3z"/>
<path id="新北市" d="m445.9 36.2-4.4 2.9-7.2 3.1-3.2 2.2.6 2.9 2.9 3.7 1.7 3.5 2.8 3.5 3.7 3.4 3 2.2 10.6 4.4 5.1.6 4-1.5 2.5-1.8.4-2.5-3.7-3.9-.2-3 .3-11.9 34.6 8.4 3.2 2-1.6 3.7-.4 2.9.7 5.2 2.4 8.7 2.6 4.1 2.2.9 7-1 3.6.4 4.2 1.1 3.7 1.9 2 2.5-8.7 4.3-.8-1.1-3.3-1.9-5.9 1.3-8.4 4.4-3.7 2.5-11.2 2.3-1.4 2.9 2.5 3.6-1.6 3.8-4.6 2.9-3.5 1.2-3.7 2-3.3 4.1-3.1 5-5 3.6-6.2 1.9-13.5 8.1-13 5.3-3.8 2.3-4.7 4-2 4.9.2 4.2 1 3.2.4 2-3.9 2.8-6.6 3.2-5 3.5-3.8 3.3-4.9 1.8-5.7 1.6-2.5-5.4-8.9-8.5-1.4-5.6-.8-5.2 3.1-3.7 1.5-5.3-8.5-12.3-5-2-7.4.4-5.1-2.9 1.3-6.7-1-5.1-5.4-5.1-1-5.1 1-5.8-.2-6.2 3.7-4 13.1-3.9 3.3-3.4 1-4.2-.5-4.1-5.1-7.5-4.2-2.2-4.1-1-3.2-2.8-4.7-3.1-6.3-3-4.2-4.6 11.2-2.1 4.8-1.8 6.1-5.2 1.9-.9 2.2-.4h3.1l3.5 1.1 1.9 2.7 1.2 2.7 1.5 1.6 3.5-1.4-3.6-5.7-5.8-5.9-3.1-1.9.9-2.7 1.8-1.5 1.9-.9.8-1 2.1-5.1 3.2-5.9 6.6-5.9 9.6-4.9 11-2.5 10.8 1.2 4.5 3.4 10 14.2 3.6 7.4 1.2-.5 2.7-.7 3-.4 2.2.6-.1.9-1.1 1.3-1 1.8.1 2.2 1.1 1.2zm-18.5 56 7.6-9.6 2-4.3-3.8-3.2-4.6-2.6-.1-5.1 1.6-6.6-1.6-4.4-3.9-3.5-2.5-10-3.2-6.8-.4-3.5.5-3.6-2.1-2.2-3.8-1.2-4 2-2.9 2.5-10.9 6.4-3.6 4-2.1 4.6-1.8 2.4-1.6 3 3.8 4.2 5.7 5.5 1.2 6.3-1.5 7.4 3.9 6.7 5.8 4.6 3.8 4.3 3.7 3.3 4.8 1 5.8.1z"/>
<path id="桃園市" d="m391.8 177.8-3.1.9-5.4 3.9 3.1 12.4-2.2 3.8-3.4 1.3-3.3-.6-3.9 1.6-.5 1.5-4.8-2.2-7.3-4.1-4-2.9-5.5-.9-6.2-3.8-5.2-3.9-.5-4.3 4.6-6.5 1.9-7.8-1.6-7.3-.4-5-3.4-2.6-4.3-2.2-2.6-4.5-3.4-3.5-3.9.3-3.8-.7-3.1-3.1-4.2-3.1-6.5-2.1-3.5-3.7 1.1-5.8-3.6-4.2-6.8-2.2-4.1-2-4.3-1.2-5-2-4-8.7-4.6-3.1-13.7 1-3.1-1.1 8.9-14.2 6.9-8.3 7.2-6.1 18.4-6.1 4.3-2.7 3.7-3.2 4.5-2.5 9-3.2 20.1-3.6 4.2 4.6 6.3 3 4.7 3.1 3.2 2.8 4.1 1 4.2 2.2 5.1 7.5.5 4.1-1 4.2-3.3 3.4-13.1 3.9-3.7 4 .2 6.2-1 5.8 1 5.1 5.4 5.1 1 5.1-1.3 6.7 5.1 2.9 7.4-.4 5 2 8.5 12.3-1.5 5.3-3.1 3.7.8 5.2 1.4 5.6 8.9 8.5z"/>
<path id="彰化縣" d="m177.2 368.6.1 3.6-4.3 1.6-1.2 2.9.5 4-2 4.6-1.6 5.4-.1 5.7-1.2 6.6-.9 13.4 2.1 6.3 3.6 3.3 3.9 1.4 5.6 2.9-1 3.5-3.8 1.5-2.5 2.3-2.4 1.6-1 .7-12-2.4-5.8.1-12.2-6-19.7-2.3-11.6-4.4-6.6-1.8-7.6-.4-22 2.6-7.6-4.4.8-1.4 1.6-7.1 1.2-3 7.1-6.8 2-2.8 2.7-7.8 4.2-7.7 5.7-16.1 2.7-4.7 3-3 2.5-1.7 2.2-1.1 1.6-1.4.6-3 1.2-2.8 5.1-4 1.2-3 .6-10.1.9-2.8 2.7-2.6 11.3-13.2 5.8 1.9 4 3.5 2.7 6.3 1 7.6 4.5 5.4 11.9 3.5 4.3 3.6 3.2 5 2 4 .1 4 1.2 3.3 4.3.8 5.4 3.5z"/>
<path id="嘉義縣" d="m29.6 572.2-1.8 1.4-.4-1.1 2.4-3.1.9-2.4 1.1-1.5.6.5.1 1.1-1.4 2zm2.2-12.6-.7-.7 2-3.8.9-.4-.5 1.9zm4.9-9-.1-4.4.5.4.1 2.9zm1.4-9.7-.8 1.6-.5-2zm-1.3-6.1-.5 1.3-1.3-2.1zm-29.8 1-3.2 1.6 3.8-5.4 13.9-14.1 10.6-13.5 2.5-.8-9 14.7-4.5 4.5-2.9 3.5-3.8 3.8-3 2.1zm189.5-51.1 6.1.7 6.8 2.6 4.1 1.2 5.1 2.8-.3 5.3-3 5.1 1.2 4.8 2.7 6.5.4 5.9 1.1 3.8 7.6 1.4 25.6.2.9.2-18.5 9.4-8.5 6.8-3.6 6.8-4.2 5-7.7 4.3-7.9 6.1-4.5 5.4-12.3 7.3-5.8.6-6.9-.7-3.6 3.5-.1 5 1.4 4.5 1 6.7-8.4-1-3.7-1.1-5 .6-5.3 2.4h-3.8l-4.5-3.5-1.6-4.6 1.8-14.2-1-7.5-9.9-10.1-1.7-5.1-2.1-4.2-4-2.4-7.2-2.4-8.5.5-15.2 2.8-7.8 3.5-6.1 4.6-4.7 4.8-6.6 5.1-5.8 3.6-2.5 4.9-6.2 2.8-7.2-1.8-8.9-1.3-5.2-2 3.8-.3 3.3-1.4 1.4.5-.9-3.2-2.2 1.6-1.8-.5-2.5-.1v-3.3l2.4-5.6 3.7-.3 5.4.1-3.7-10.5-4.1-8 1.9-3.7v-1.9l-3.1-1.5.4-1.8 1.8-2 .9-2.6 4-5.2-8.5.5-.2-8.7 11.6-1.4 8.3 4.7 6.1.1 3.9-3.2 1.7-4.9 2.1-3 5.3-.8 7-5.7 4.4-2.4 3.8-3.8 16.3-9.4 7.2-2 12.6-2.3 6.9-.4 5.3 4.6 5 5.9 12.6 4.6 3.7-.5 8.3-2.4 4.7 3.4 2.4 3.9 6.3-.6 11.7-2.4 4-1.3v-3.4l.3-5zm-92.7 30.8-3.8 4.1.9 5.6 6.1 2.4 7 4.5 7.3 1.7 6.8-2.7 4.5-.6 3-2.2-2.5-6.8-2.5-4-4.1-2.2-5.6-2.1-7.8.7z"/>
<path id="嘉義市" d="m103.8 515.5 9.3-1.6 7.8-.7 5.6 2.1 4.1 2.2 2.5 4 2.5 6.8-3 2.2-4.5.6-6.8 2.7-7.3-1.7-7-4.5-6.1-2.4-.9-5.6z"/>
<path id="花蓮縣" d="m465.4 280.5.6.8 1.6 2.9.2 1.1-1.4 2.4-5.8 5.7-6.2 8.6-4.7 3.7-1.4 2 .7 2.1-.9 1.5-6.6 5.1-2.5 2.4-2.8 6-2.9 12.2-7.4 10.9-1.5 4.4.2 4.7 1.8 5.2 1.5 2.3 1.3 1 .8 1.4.1 3.2-1.1 3.6-3.7 5.8-.7 3.5-.4 6.4-3.2 16.3-6.4 17-8 40.1-4.8 9.8-11 64.1-3.5-1-10.8 5.2-3.9 5.4 1.7 6.9.6 6.9-3.6 6.9-3.4 5.2-2.7 6.6-2.4 8.4-3.7 7.7-4.8 13.2-3.1 6.1.1 6.7-.9 6.2-6.5 3.7-8.2-1.1-11.7-9.7-9.2-16-5.7-1.5-6.3-.9-5-4.8-6.1-2.9-7.8-2.8-5-8.1-1.2-7.4-.3-2.5-2.8-7.6-6.3-5.2-5.6-3.6-1-4 1.4-3.2 5.6-2.4 3-5-1.9-5.8 6-3.5 3.1-2.8-1.7-6.2 1.5-2.7 1.5-4 5.2-3.9 7.4-1.6 7.4-.3 5.3-4.7 1.3-8.5 4-5.2 7.6-2.8 4.5-3.1 1.6-5.1 3.2-12.6 1.2-8.4-.9-7.2-1.2-5.4-3.2-4.1-2.1-4 5.7-9.4.2-3.7 2.5-7 3.9-8.5 3-8.8 1.6-9.9.6-7.6-1.8-4.5-2-3.3 2.3-7.6 5.1-10.7 8-10.4.3-3.9-1.5-4.5-5.2-3.4-2.9-3.1-.2-9.9 3.7-2.9 6.6-2.2 5.2-2.4-.2-3.7-1.4-6.2 2.8-2 1.2-2.1 3.4-1.7 3.1-3.8 1.3-5.1 3-5 7.5-4.7 2.4-6.2.4-4.2 4.7-4.9 2.5 2.1 6.5 3.1 15 3.8 8.3 3.2h6.5l4.9-4.5 2.4-6 3.8-.9 18.5 11.1 11.1 1.7z"/>
<path id="南投縣" d="m355 306.6 1.4 6.2.2 3.7-5.2 2.4-6.6 2.2-3.7 2.9.2 9.9 2.9 3.1 5.2 3.4 1.5 4.5-.3 3.9-8 10.4-5.1 10.7-2.3 7.6 2 3.3 1.8 4.5-.6 7.6-1.6 9.9-3 8.8-3.9 8.5-2.5 7-.2 3.7-5.7 9.4 2.1 4 3.2 4.1 1.2 5.4.9 7.2-1.2 8.4-3.2 12.6-1.6 5.1-4.5 3.1-7.6 2.8-4 5.2-1.3 8.5-5.3 4.7-7.4.3-7.4 1.6-5.2 3.9-1.5 4-1.5 2.7 1.7 6.2-3.1 2.8-6 3.5-.7-2-4.2-5.9-5.8-2.2-4.3-1-.9-.2-25.6-.2-7.6-1.4-1.1-3.8-.4-5.9-2.7-6.5-1.2-4.8 3-5.1.3-5.3-5.1-2.8-4.1-1.2-6.8-2.6-6.1-.7-2.6-3.5-8.2.9-6.8 2-5.8-2.5-4-4.7.9-5.7 1.9-5.2-1-7.7 1-7.2 2-4.7-1.9-7.2 2.4-1.6 2.5-2.3 3.8-1.5 1-3.5-5.6-2.9-3.9-1.4-3.6-3.3-2.1-6.3.9-13.4 1.2-6.6.1-5.7 1.6-5.4 2-4.6-.5-4 1.2-2.9 4.3-1.6-.1-3.6 4.3.2 17.9 2.5 4.2-.6 5-4.8 7.6-14.4 3.7-8.5 6.4-3 10.1 1.4 6-.2 5.8-7.7 3-1.9 8.9 6.7 3.5-.9 2.6-5.5 4.7-3.9 6.6.1 5-1.9 7.9-7.6 5.1-2.9 4.4-.8 8.8-4.7 6.2-.2 6.3-1 11.1-4.4 4.6-.3 4.7 1z"/>
<path id="台中市" d="m333.7 249.5.8-.6 10.6-1 2.8.8 3.6 1-.6 5.5 1.4 3.8 4.9 1 4.4 2.6 3.7 2.5 4-.6 4.7-2.3h4.9l5.9 4.7-4.7 4.9-.4 4.2-2.4 6.2-7.5 4.7-3 5-1.3 5.1-3.1 3.8-3.4 1.7-1.2 2.1-2.8 2-13.4-1.3-4.7-1-4.6.3-11.1 4.4-6.3 1-6.2.2-8.8 4.7-4.4.8-5.1 2.9-7.9 7.6-5 1.9-6.6-.1-4.7 3.9-2.6 5.5-3.5.9-8.9-6.7-3 1.9-5.8 7.7-6 .2-10.1-1.4-6.4 3-3.7 8.5-7.6 14.4-5 4.8-4.2.6-17.9-2.5-4.3-.2v-1.4l-5.4-3.5-4.3-.8-1.2-3.3-.1-4-2-4-3.2-5-4.3-3.6-11.9-3.5-4.5-5.4-1-7.6-2.7-6.3-4-3.5-5.8-1.9.6-.8.8-3.3 3.3-2.7 2.2-6.5 2.7-12.3 9.3-16.1 2.8-9.9 3.4-5.5 13.3-14.8 9.2 14.3 4.7 5 6.3 5.5 15.1 11.1 7.3 3.6 6.6 1.2 11.6 6.7 12.1-.7 5.2-2.8.9-7.4 5.5-3.3 9.9.8 6 2.4 5 5.6 5.4 2.1 8.9-4.7 6.8-2.9 11.6-9.2 5.9-3.2 4.6-4.4 4.2-3 5.3.1 4.9-2 1.8-5.6z"/>
<path id="雲林縣" d="m172 439.2 1.9 7.2-2 4.7-1 7.2 1 7.7-1.9 5.2-.9 5.7 4 4.7 5.8 2.5 6.8-2 8.2-.9 2.6 3.5h-.5l-.3 5v3.4l-4 1.3-11.7 2.4-6.3.6-2.4-3.9-4.7-3.4-8.3 2.4-3.7.5-12.6-4.6-5-5.9-5.3-4.6-6.9.4-12.6 2.3-7.2 2-16.3 9.4-3.8 3.8-4.4 2.4-7 5.7-5.3.8-2.1 3-1.7 4.9-3.9 3.2-6.1-.1-8.3-4.7-11.6 1.4 4.6-5.2-.2-16.4.7-12.3 2.8-9.8 4.3-7.7 1.3-10 2.3-8.8 1.3-3 6.1-8.1 1.1-2.8.7-1.5 5.6-4.3.8-1.6 7.6 4.4 22-2.6 7.6.4 6.6 1.8 11.6 4.4 19.7 2.3 12.2 6 5.8-.1 12 2.4z"/>
<path id="台東縣" d="m419.2 942-5.5 1.7-7.3-2.9-6.8-4.8-3.9-3.7 1.2-2.7-.1-2.5-1-2.4-1.7-2.1h19.5v1.8l-1.3 3.5-.4 2.9.9 2.5 4.7 3.5 2 2.5zm-24-177.6-.1 1.1-3.4-.4-.4-.6-2.7-1-2.8-4.9-1.4-4.3.6-.6 10-.7 1.1.6.8 2-.8 3.9-.9 1.6-.4 1.7zm-163.1 114.1-4.5.3-10.2-4.7-4.6-4.9-3.2-5.9-.6-6.1.1-5.7-3.1-4.4-3.4-1.7-2.7-3.9.5-4.5 2.1-3.9 5.3-3.2 2.5-3.8-4.6-5.6-2.6-5v-5.4l-1.1-7.1-2-6.1-1.2-6.5.8-14.7 3-7.5 3.7-6.6 2.4-6.6 5.4-4.5 7.6-1.6 4.8-2.7 9.8-4.1 2-5 .1-5.2 2.8-13.8-5.5-3.6-5.4-1.3-.7-4.9-3.5-6.6 3.9-.5-1.2-4.9-6.2-6.4-3-4.6-1.3-8.1 2.3-9.8 8.5-7.2 4.3-5.9.1-11.2 3-13.2-2.1-9.9.8-6.9 7.4-4 2.7-4.9-2.3-6 .9-5.7 7.8-5.1 4-3.9 6.4-4.1 15.6-3.8 1.2 7.4 5 8.1 7.8 2.8 6.1 2.9 5 4.8 6.3.9 5.7 1.5 9.2 16 11.7 9.7 8.2 1.1 6.5-3.7.9-6.2-.1-6.7 3.1-6.1 4.8-13.2 3.7-7.7 2.4-8.4 2.7-6.6 3.4-5.2 3.6-6.9-.6-6.9-1.7-6.9 3.9-5.4 10.8-5.2 3.5 1-4.6 26.4-2.2 4.9-7.1 9.4-2.6 4.9-2.1 6.1-1.5 11.4.2 10.2-1 9.7-4.9 9.9-2.1 2.1-4.7 3.5-2.2 2.2-1 2.3-1.7 5.8-4.8 8.4-2.9 13.1-2.1 5.9-10.3 14.8-1.3 2.7-13.9 11.8-3.3 3.8-.4 2.7.6 6.2-.2 2.8-1.2 3.2-2.2 3.5-4.7 6.1-4.7 4.5-16.1 10.7-10.8 11.9-2.7 1.4-2.1 2.7-5.2 13.5-2.6 5-8 10-3.3 6-1.9 12.3-4.8 16.8-9.5 16.7-1.4 5.7-1.7 16.1.3 14.7z"/>

<path id="澎湖縣" d="m20.7 248.5l-1.8 0.9-1.3-1.5-1.5-4.7 1-1.2 3.8-1.3 2.7 0.7 0.1 2.1-0.2 1.6-1.2 1.2-1.6 2.2z m-1.2-12l-1.7 3.1-2.2-0.6-2-2.5-0.3-2.5 1.2-1.1 3.2 0.5 1.8 3.1z m48.8-3.2l-0.4 0.1-1.2-1.5 0.3-0.6 2.5-0.2 0.8 2-2 0.2z m14-4.6l0.3 0.2 2.3 0 0 1.3-1.1 1.5-0.7 1.8-1.1-2.8 0.3-2z m-33.5-29.6l-1.7 0.1-3 1.8-0.4-0.4 0.4-1.3 1.1-1.5 0.7-0.6 1.6-0.3 1.5 0.9-0.2 1.3z m-8.4-6.7l0.1 2.3 0.5 1.6 1.4 1.2-0.6 1.6-1.2 1.2 0.6 1.9-1.5 0.6-3.1-0.3-1.6-0.7 1.4-3.1-0.2-4.2-0.9 0.6-2 0.6-0.6-2.3 2.1-5.1 1.6-0.3 2.7 3.6 1.3 0.8z m-49.5-5.7l2.4 0.6 0 1.6-0.6 0.9-2.1 0.6-1.1-1.1 1.4-2.6z m58.5-24.8l-3.2 2.1-2.1 0.6-2.2 1.1-1.3-0.5-0.3-1.8 0.7-0.6 1.8 0.5 4-2 2.6 0.6z m19.5-28l-0.6 1.3 4-1.3 3.1 0.4 2.3-0.2 1.6-2.7 4.7 8.7 1.2 4-0.5 3-2-2-2.5-1.7-2.8-0.5-4 2.2-2.8 0.3-1.4 0.8-0.7 1.5-1.1 4.1-0.7 1.2-4.7 2.7-4.8 0.7-4.8-1.9-4.9-4.9 1.3-2.5 2.7 3.2 4 0.9 4.3-1.2 3.5-2.9-2.4-0.9-2-1.2-1.5-1.6-1.4-2.2-0.8 1.4-1 0.6-0.3-4 0.3-4 1.8 0 2.1 0.5 7.4-4.6 4.6-1.6-1.2 4.4z m-39.9 9.3l-3.8 0 0.7-2.1 1.2-1.3 1.9-0.5 2.5-0.2 2.2-0.9 0.6-2 0.1-4.8 3.2-10.4 3.1-3 4.2 3.6-2.5 1.5-1.7 3.6-2.8 8.5-0.1 2.2 0.7 2-0.3 1.3-3 0.5-2.2 0.1-1.5 0.3-1.3 0.6-1.2 1z m33.8-17.9l-2.2 0.7-1.1-1.5-0.9-3.5-2-2.9-4.3-4.3 5.5-4.1 3.3 1.7 3.2 2.8 1.4 2.9-2.5 2.4 1 3.5-1.4 2.3z m2.6-30.4l-0.3 0.9-1.3-3-0.2-1.4 1.8-1.5 1.6-3 0.5 1.1 2.5 1.4-0.4 1.8-2.2 1.3-2 2.4z"></path>
<path id="金門縣" d="m27.2 40.4l-5.2 1.5-3-1.2 5-9.9 1.3-1.4 2.1-0.5 2.1-0.1 2 1.4 1.6 1.8 0 3.1-1.4 2.1-1.6 0.1-1.1 1.2-0.6 1.2-1.2 0.7z m55-26.8l4.7 12.6-1 8.8-3.9 4.6-6.8-4.3-5-1.6-8.1 0.8-7.1 4.5-3.9 6.1-3.4 1.7-3.9-1.9-2.7-0.1-2.4-1.1-1.2-2.1 0.5-0.7 2.1-2.8 0.7-1.2 0.2-2.1-0.1-2.5-0.7-4.3-1.8-4.2-0.2-2.1 1.5-0.9 7.6-3.7 10 6.6 7-0.9 1.1-8.7 2.3-5.5 7.5-1.5 7 6.5z m269.3-137.7l-2.9 1.5-1.3-1.2 0.7-3.2 2.4-1.4 1.7 0.3 0.2 1.9-0.8 2.1z"></path>
<path id="連江縣" d="m160.2 93.9l-0.2 2.3-1.9 2.1-4.1 2 2.5-5.6 2.5 0.5 0.1-0.9 1.1-0.4z m-11.8-0.8l-2 2.1-2.4-3.4 3.6-1.3 2.7 1.5-1.9 1.1z m-3.2-54.9l1 0.5 4.4-2.6 2.8 0 0 1.8-2.8 3.2-5.5 2.9-1.7 0.3-2.5-1.7-0.8-2.4 0.5-2.8 1.1-2 1-0.2 0.3 2.2 2.2 0.8z m21.3-17.8l-0.6 2.2 0.6 1.2-1.4-0.2-1.5-2.2-1.1-0.7-2.3 1.3-1-0.4-1.3 0.3-1.5 1.7-1.2 5-1.1-0.7-0.5-1.5 0.5-4.3 0.5-1.6 1.1-0.7 2.7-0.9 0.7-0.9 2.2-1.3 2.5 0.4 1.3 1.9 1.4 1.4z m129.8-45.6l-1.2 0.4-1.1-0.4-1.4 1.3-1.1 2.1-0.3-0.5-1.2-0.2-1.8-1 1.1-1.7-0.5-1.4 0.9-0.6 2.2-1.8 2.6 1.5 0.6 1.3 1.2 1z"></path>
<!--東引有畫但是在 viewbox 外...-->

</g>

<path stroke="rgba(0,0,0,0.4)" fill="none" stroke-width="1" d="m0 260 l 100 0 l150 -260 m-110 191 l-30 -130 l-100 0 m100 0 l0 -100"></path>

<g fill="#F33" stroke="#fff" stroke-width="2" id="reservoirs"></g>

</svg>
